<?xml version="1.0" encoding="UTF-8" standalone="no"?>
<svg
   xmlns:dc="http://purl.org/dc/elements/1.1/"
   xmlns:cc="http://creativecommons.org/ns#"
   xmlns:rdf="http://www.w3.org/1999/02/22-rdf-syntax-ns#"
   xmlns:svg="http://www.w3.org/2000/svg"
   xmlns="http://www.w3.org/2000/svg"
   xmlns:sodipodi="http://sodipodi.sourceforge.net/DTD/sodipodi-0.dtd"
   xmlns:inkscape="http://www.inkscape.org/namespaces/inkscape"
   width="339"
   height="119"
   viewBox="0 0 339 119"
   class="css-1j8o68f"
   version="1.1"
   id="svg23"
   sodipodi:docname="logo1.svg"
   inkscape:version="0.92.4 (5da689c313, 2019-01-14)">
  <metadata
     id="metadata27">
    <rdf:RDF>
      <cc:Work
         rdf:about="">
        <dc:format>image/svg+xml</dc:format>
        <dc:type
           rdf:resource="http://purl.org/dc/dcmitype/StillImage" />
        <dc:title></dc:title>
      </cc:Work>
    </rdf:RDF>
  </metadata>
  <sodipodi:namedview
     pagecolor="#ffffff"
     bordercolor="#666666"
     borderopacity="1"
     objecttolerance="10"
     gridtolerance="10"
     guidetolerance="10"
     inkscape:pageopacity="0"
     inkscape:pageshadow="2"
     inkscape:window-width="4626"
     inkscape:window-height="2146"
     id="namedview25"
     showgrid="false"
     inkscape:zoom="9.3215339"
     inkscape:cx="169.5"
     inkscape:cy="59.5"
     inkscape:window-x="378"
     inkscape:window-y="172"
     inkscape:window-maximized="0"
     inkscape:current-layer="svg23" />
  <defs
     id="SvgjsDefs6043" />
  <g
     id="SvgjsG6044"
     featurekey="rootContainer"
     transform="matrix(1,0,0,1,0,0)"
     fill="#ffa800">
    <rect
       width="339"
       height="119"
       rx="10"
       ry="10"
       id="rect11" />
  </g>
  <g
     id="SvgjsG6045"
     featurekey="OvNqIF-0"
     transform="matrix(0.9639583156392799,0,0,0.9639583156392799,12.760670990311883,11.17207067203218)"
     fill="#1f2260">
    <path
       d="M64.427,49.68c0-7.638-6.192-13.83-13.83-13.83s-13.83,6.192-13.83,13.83c0,7.638,6.192,13.83,13.83,13.83  S64.427,57.318,64.427,49.68z M48.361,41.848c-2.372,1.271-4.085,3.133-5.158,4.575c-0.407,0.547-1.273,0.165-1.14-0.503  c0.817-4.081,3.712-5.111,5.949-5.269C48.695,40.603,48.964,41.525,48.361,41.848z M39.273,36.327l-5.169-4.885  c0.602-1.094,0.975-2.332,0.975-3.669c0-4.235-3.43-7.665-7.666-7.665s-7.672,3.428-7.672,7.665s3.435,7.668,7.672,7.668  c1.493,0,2.875-0.445,4.054-1.183l5.162,4.88C37.408,38.106,38.289,37.161,39.273,36.327z M26.943,23.318  c-1.745,0.935-3.004,2.304-3.793,3.365c-0.299,0.402-0.937,0.121-0.838-0.37c0.601-3.001,2.73-3.759,4.375-3.875  C27.188,22.402,27.386,23.08,26.943,23.318z M61.138,35.716l6.869-11.559c0.676,0.193,1.378,0.333,2.114,0.333  c4.244,0,7.674-3.432,7.674-7.668c0-4.235-3.43-7.664-7.674-7.664c-4.236,0-7.665,3.428-7.665,7.664c0,2.103,0.848,4.003,2.219,5.39  l-6.847,11.527C59.004,34.271,60.114,34.937,61.138,35.716z M65.302,15.11c0.601-3.001,2.73-3.759,4.375-3.875  c0.502-0.036,0.7,0.642,0.256,0.88c-1.745,0.935-3.004,2.304-3.793,3.365C65.841,15.882,65.203,15.601,65.302,15.11z M84.828,45.393  c-3.298,0-6.091,2.096-7.175,5.017l-9.543-0.942c0,0.072,0.011,0.141,0.011,0.212c0,1.244-0.137,2.459-0.385,3.632l9.539,0.942  c0.577,3.66,3.728,6.466,7.552,6.466c4.235,0,7.663-3.428,7.663-7.663C92.49,48.825,89.062,45.393,84.828,45.393z M84.457,48.342  c-1.745,0.935-3.004,2.304-3.793,3.365c-0.299,0.402-0.937,0.121-0.838-0.37c0.601-3.001,2.73-3.759,4.375-3.875  C84.703,47.427,84.901,48.104,84.457,48.342z M58.493,75.538l-2.134-9.323c-1.204,0.419-2.457,0.72-3.764,0.87l2.137,9.324  c-2.45,1.282-4.141,3.815-4.141,6.773c0,4.235,3.428,7.661,7.672,7.661c4.235,0,7.663-3.428,7.663-7.661  C65.931,79.025,62.619,75.66,58.493,75.538z M57.44,78.943c-1.745,0.935-3.004,2.304-3.793,3.365  c-0.299,0.402-0.937,0.121-0.838-0.37c0.601-3.001,2.73-3.759,4.375-3.875C57.686,78.027,57.884,78.705,57.44,78.943z   M33.469,53.381l-11.879,3.98c-1.371-2.094-3.73-3.482-6.415-3.482c-4.236,0-7.665,3.43-7.665,7.665c0,4.24,3.428,7.67,7.665,7.67  c4.233,0,7.67-3.43,7.67-7.67c0-0.177-0.038-0.34-0.052-0.514l11.917-3.99C34.172,55.88,33.745,54.659,33.469,53.381z   M14.773,57.314c-1.745,0.935-3.004,2.304-3.793,3.365c-0.299,0.402-0.937,0.121-0.838-0.37c0.601-3.001,2.73-3.759,4.375-3.875  C15.019,56.398,15.217,57.076,14.773,57.314z"
       id="path14" />
  </g>
  <g
     id="SvgjsG6046"
     featurekey="1cK3sX-0"
     transform="matrix(4.193712237162121,0,0,4.193712237162121,116.96754311571584,-1.3235357748630818)"
     fill="#1f2260">
    <path
       d="M2.86 18.44 l6.66 0 l0 1.56 l-7.06 0 l-1.26 0 l0 -14 l1.66 0 l6.48 0 l0 1.56 l-6.48 0 l0 4.64 l5.04 0 l0 1.52 l-5.04 0 l0 4.72 z M20.78 20 l-5.42 -6.54 l-2.04 2.22 l0 4.32 l-1.7 0 l0 -14 l1.7 0 l0 7.5 l6.82 -7.5 l2.08 0 l-5.82 6.34 l6.34 7.66 l-1.96 0 z M37.7 12.96 c0.3 4.48 -2.76 7.24 -6.4 7.24 c-3.74 0 -7.16 -2.96 -7.16 -7.2 s3.5 -7.2 7.16 -7.2 c1.76 0 3.36 0.6 4.62 1.66 l-1.02 1.16 c-0.98 -0.78 -2.24 -1.24 -3.5 -1.24 c-2.86 0 -5.54 2.32 -5.54 5.62 s2.6 5.62 5.44 5.62 c2.48 0 4.46 -1.34 4.84 -4.22 l-4.08 0 l0 -1.44 l5.64 0 z M48.080000000000005 7.5 l-6.56 0 l0 4.74 l5.42 0 l0 1.42 l-5.42 0 l0 6.34 l-1.7 0 l0 -14 l8.26 0 l0 1.5 z"
       id="path17" />
  </g>
  <g
     id="SvgjsG6047"
     featurekey="rGnxgP-0"
     transform="matrix(0.24337073335065418,0,0,0.24337073335065418,121.70795499232618,91.5981845201971)"
     fill="#1f2260">
    <path
       d="M2.86 18.44 l6.66 0 l0 1.56 l-7.06 0 l-1.26 0 l0 -14 l1.66 0 l6.48 0 l0 1.56 l-6.48 0 l0 4.64 l5.04 0 l0 1.52 l-5.04 0 l0 4.72 z M28.716 6 l1.66 0 l0 14 l-1.28 0 l-8.48 -10.96 l0 10.96 l-1.66 0 l0 -14 l1.28 0 l8.48 10.98 l0 -10.98 z M49.152 6 l0 1.56 l-3.88 0 l0 12.44 l-1.66 0 l0 -12.44 l-3.9 0 l0 -1.56 l9.44 0 z M60.147999999999996 18.44 l6.66 0 l0 1.56 l-7.06 0 l-1.26 0 l0 -14 l1.66 0 l6.48 0 l0 1.56 l-6.48 0 l0 4.64 l5.04 0 l0 1.52 l-5.04 0 l0 4.72 z M86.524 20 l-1.8 0 l-3.54 -5.04 l-0.38 0 l-2.9 0 l0 5.04 l-1.66 0 l0 -14 l4.56 0 c3.14 0 4.96 1.92 4.96 4.52 c0 2 -1.08 3.56 -3 4.16 z M77.904 7.5600000000000005 l0 5.92 l2.86 0 c2.02 0 3.34 -1.04 3.34 -2.96 c0 -1.94 -1.32 -2.96 -3.34 -2.96 l-2.86 0 z M100.22 6 c3.14 0 4.96 1.92 4.96 4.52 s-1.82 4.44 -4.96 4.44 l-2.9 0 l0 5.04 l-1.66 0 l0 -14 l4.56 0 z M100.17999999999999 13.48 c2.02 0 3.34 -1.04 3.34 -2.96 c0 -1.94 -1.32 -2.96 -3.34 -2.96 l-2.86 0 l0 5.92 l2.86 0 z M124.696 20 l-1.8 0 l-3.54 -5.04 l-0.38 0 l-2.9 0 l0 5.04 l-1.66 0 l0 -14 l4.56 0 c3.14 0 4.96 1.92 4.96 4.52 c0 2 -1.08 3.56 -3 4.16 z M116.076 7.5600000000000005 l0 5.92 l2.86 0 c2.02 0 3.34 -1.04 3.34 -2.96 c0 -1.94 -1.32 -2.96 -3.34 -2.96 l-2.86 0 z M135.29200000000003 6 l0 14 l-1.66 0 l0 -14 l1.66 0 z M149.32800000000003 5.76 c2.18 0 3.78 1.44 4.38 2.94 l-1.26 0.68 c-0.64 -1.28 -1.66 -2.12 -3.12 -2.12 c-1.54 0 -2.6 0.88 -2.6 2.1 c0 1.14 0.72 1.86 2.24 2.44 l1.02 0.38 c2.52 0.94 4.1 2.02 4.1 4.24 c0 2.4 -2.3 3.88 -4.68 3.88 s-4.34 -1.44 -4.88 -3.44 l1.34 -0.64 c0.48 1.48 1.74 2.56 3.54 2.56 c1.6 0 2.96 -0.92 2.96 -2.34 c0 -1.6 -1.12 -2.2 -2.78 -2.84 l-1.04 -0.4 c-2.12 -0.8 -3.48 -1.9 -3.48 -3.88 c0 -2.04 1.8 -3.56 4.26 -3.56 z M164.98400000000004 18.44 l6.66 0 l0 1.56 l-7.06 0 l-1.26 0 l0 -14 l1.66 0 l6.48 0 l0 1.56 l-6.48 0 l0 4.64 l5.04 0 l0 1.52 l-5.04 0 l0 4.72 z M203.57600000000002 20 l-5.42 -6.54 l-2.04 2.22 l0 4.32 l-1.7 0 l0 -14 l1.7 0 l0 7.5 l6.82 -7.5 l2.08 0 l-5.82 6.34 l6.34 7.66 l-1.96 0 z M224.33200000000005 6 l1.66 0 l0 14 l-1.28 0 l-8.48 -10.96 l0 10.96 l-1.66 0 l0 -14 l1.28 0 l8.48 10.98 l0 -10.98 z M242.58800000000005 5.800000000000001 c3.64 0 7.16 2.96 7.16 7.2 s-3.52 7.2 -7.16 7.2 c-3.66 0 -7.16 -2.96 -7.16 -7.2 s3.5 -7.2 7.16 -7.2 z M242.58800000000005 18.62 c2.74 0 5.44 -2.32 5.44 -5.62 s-2.7 -5.62 -5.44 -5.62 c-2.76 0 -5.44 2.32 -5.44 5.62 s2.68 5.62 5.44 5.62 z M277.504 6 l-4.52 14 l-1.08 0 l-3.86 -10.94 l-3.84 10.94 l-1.08 0 l-4.54 -14 l1.72 0 l3.42 10.58 l3.74 -10.58 l1.16 0 l3.76 10.58 l3.42 -10.58 l1.7 0 z M288.30000000000007 18.44 l6.28 0 l0 1.56 l-7.94 0 l0 -14 l1.66 0 l0 12.44 z M305.5760000000001 18.44 l6.66 0 l0 1.56 l-7.06 0 l-1.26 0 l0 -14 l1.66 0 l6.48 0 l0 1.56 l-6.48 0 l0 4.64 l5.04 0 l0 1.52 l-5.04 0 l0 4.72 z M325.8320000000001 6 c4.08 0 7.08 3.1 7.08 7 s-3 7 -7.08 7 l-4.16 0 l0 -14 l4.16 0 z M325.81200000000007 18.42 c3.34 0 5.4 -2.42 5.4 -5.42 s-2.06 -5.42 -5.4 -5.42 l-2.48 0 l0 10.84 l2.48 0 z M355.5080000000001 12.96 c0.3 4.48 -2.76 7.24 -6.4 7.24 c-3.74 0 -7.16 -2.96 -7.16 -7.2 s3.5 -7.2 7.16 -7.2 c1.76 0 3.36 0.6 4.62 1.66 l-1.02 1.16 c-0.98 -0.78 -2.24 -1.24 -3.5 -1.24 c-2.86 0 -5.54 2.32 -5.54 5.62 s2.6 5.62 5.44 5.62 c2.48 0 4.46 -1.34 4.84 -4.22 l-4.08 0 l0 -1.44 l5.64 0 z M366.62400000000014 18.44 l6.66 0 l0 1.56 l-7.06 0 l-1.26 0 l0 -14 l1.66 0 l6.48 0 l0 1.56 l-6.48 0 l0 4.64 l5.04 0 l0 1.52 l-5.04 0 l0 4.72 z M409.3160000000001 12.96 c0.3 4.48 -2.76 7.24 -6.4 7.24 c-3.74 0 -7.16 -2.96 -7.16 -7.2 s3.5 -7.2 7.16 -7.2 c1.76 0 3.36 0.6 4.62 1.66 l-1.02 1.16 c-0.98 -0.78 -2.24 -1.24 -3.5 -1.24 c-2.86 0 -5.54 2.32 -5.54 5.62 s2.6 5.62 5.44 5.62 c2.48 0 4.46 -1.34 4.84 -4.22 l-4.08 0 l0 -1.44 l5.64 0 z M429.05200000000013 20 l-1.8 0 l-3.54 -5.04 l-0.38 0 l-2.9 0 l0 5.04 l-1.66 0 l0 -14 l4.56 0 c3.14 0 4.96 1.92 4.96 4.52 c0 2 -1.08 3.56 -3 4.16 z M420.43200000000013 7.5600000000000005 l0 5.92 l2.86 0 c2.02 0 3.34 -1.04 3.34 -2.96 c0 -1.94 -1.32 -2.96 -3.34 -2.96 l-2.86 0 z M449.5080000000001 20 l-1.44 -3.3 l-7.48 0 l-1.44 3.3 l-1.76 0 l6.24 -14 l1.38 0 l6.26 14 l-1.76 0 z M441.20800000000014 15.3 l6.24 0 l-3.12 -7.12 z M464.7640000000001 6 c3.14 0 4.96 1.92 4.96 4.52 s-1.82 4.44 -4.96 4.44 l-2.9 0 l0 5.04 l-1.66 0 l0 -14 l4.56 0 z M464.72400000000016 13.48 c2.02 0 3.34 -1.04 3.34 -2.96 c0 -1.94 -1.32 -2.96 -3.34 -2.96 l-2.86 0 l0 5.92 l2.86 0 z M487.7400000000001 6 l1.66 0 l0 14 l-1.66 0 l0 -6.12 l-7.12 0 l0 6.12 l-1.66 0 l0 -14 l1.66 0 l0 6.32 l7.12 0 l0 -6.32 z M520.7320000000001 7.5 l-6.56 0 l0 4.74 l5.42 0 l0 1.42 l-5.42 0 l0 6.34 l-1.7 0 l0 -14 l8.26 0 l0 1.5 z M536.4280000000001 5.800000000000001 c3.64 0 7.16 2.96 7.16 7.2 s-3.52 7.2 -7.16 7.2 c-3.66 0 -7.16 -2.96 -7.16 -7.2 s3.5 -7.2 7.16 -7.2 z M536.4280000000001 18.62 c2.74 0 5.44 -2.32 5.44 -5.62 s-2.7 -5.62 -5.44 -5.62 c-2.76 0 -5.44 2.32 -5.44 5.62 s2.68 5.62 5.44 5.62 z M561.5240000000002 6 l1.66 0 l0 8.92 c0 3.44 -2.24 5.38 -5.08 5.38 s-5.08 -1.94 -5.08 -5.38 l0 -8.92 l1.66 0 l0 8.92 c0 2.62 1.56 3.8 3.42 3.8 s3.42 -1.18 3.42 -3.8 l0 -8.92 z M582.6800000000002 6 l1.66 0 l0 14 l-1.28 0 l-8.48 -10.96 l0 10.96 l-1.66 0 l0 -14 l1.28 0 l8.48 10.98 l0 -10.98 z M598.2360000000001 6 c4.08 0 7.08 3.1 7.08 7 s-3 7 -7.08 7 l-4.16 0 l0 -14 l4.16 0 z M598.2160000000001 18.42 c3.34 0 5.4 -2.42 5.4 -5.42 s-2.06 -5.42 -5.4 -5.42 l-2.48 0 l0 10.84 l2.48 0 z M625.9720000000001 20 l-1.44 -3.3 l-7.48 0 l-1.44 3.3 l-1.76 0 l6.24 -14 l1.38 0 l6.26 14 l-1.76 0 z M617.6720000000001 15.3 l6.24 0 l-3.12 -7.12 z M645.7080000000001 6 l0 1.56 l-3.88 0 l0 12.44 l-1.66 0 l0 -12.44 l-3.9 0 l0 -1.56 l9.44 0 z M656.7040000000001 6 l0 14 l-1.66 0 l0 -14 l1.66 0 z M673.3 5.800000000000001 c3.64 0 7.16 2.96 7.16 7.2 s-3.52 7.2 -7.16 7.2 c-3.66 0 -7.16 -2.96 -7.16 -7.2 s3.5 -7.2 7.16 -7.2 z M673.3 18.62 c2.74 0 5.44 -2.32 5.44 -5.62 s-2.7 -5.62 -5.44 -5.62 c-2.76 0 -5.44 2.32 -5.44 5.62 s2.68 5.62 5.44 5.62 z M699.6560000000001 6 l1.66 0 l0 14 l-1.28 0 l-8.48 -10.96 l0 10.96 l-1.66 0 l0 -14 l1.28 0 l8.48 10.98 l0 -10.98 z"
       id="path20" />
  </g>
</svg>
